inDegrees=no
num_controls=7
num_derivatives=13
num_iterations=180
num_multipliers=7
num_parameters=0
num_slacks=7
num_states=26
objective=6.530874
objective_accelerations=0.564235
objective_balance=0.029786
objective_effort=0.538553
objective_height=5.306911
objective_ligament=0.091390
solver_duration=1540.064856
status=Solve_Succeeded
success=true
DataType=double
version=3
OpenSimVersion=4.4-2022-07-23-0e9fedc
endheader
time	/jointset/ground_pelvis/pelvis_tilt/value	/jointset/ground_pelvis/pelvis_tx/value	/jointset/ground_pelvis/pelvis_ty/value	/jointset/hip_r/hip_flexion_r/value	/jointset/hip_r/hip_adduction_r/value	/jointset/hip_r/hip_rotation_r/value	/jointset/back/lumbar_extension/value	/jointset/patellofemoral_r/patellar_flexion_r/value	/jointset/knee_r/knee_flexion_r/value	/jointset/knee_r/knee_adduction_r/value	/jointset/knee_r/knee_rotation_r/value	/jointset/ankle_r/ankle_angle_r/value	/jointset/subtalar_r/subtalar_angle_r/value	/jointset/ground_pelvis/pelvis_tilt/speed	/jointset/ground_pelvis/pelvis_tx/speed	/jointset/ground_pelvis/pelvis_ty/speed	/jointset/hip_r/hip_flexion_r/speed	/jointset/hip_r/hip_adduction_r/speed	/jointset/hip_r/hip_rotation_r/speed	/jointset/back/lumbar_extension/speed	/jointset/patellofemoral_r/patellar_flexion_r/speed	/jointset/knee_r/knee_flexion_r/speed	/jointset/knee_r/knee_adduction_r/speed	/jointset/knee_r/knee_rotation_r/speed	/jointset/ankle_r/ankle_angle_r/speed	/jointset/subtalar_r/subtalar_angle_r/speed	/forceset/tau_hip_flexion_r	/forceset/tau_hip_adduction_r	/forceset/tau_hip_rotation_r	/forceset/tau_knee_flexion_r	/forceset/tau_ankle_angle_r	/forceset/tau_subtalar_angle_r	/forceset/tau_lumbar_extension	lambda_cid13_p0	lambda_cid14_p0	lambda_cid14_p1	lambda_cid14_p2	lambda_cid14_p3	lambda_cid14_p4	lambda_cid14_p5	/jointset/ground_pelvis/pelvis_tilt/accel	/jointset/ground_pelvis/pelvis_tx/accel	/jointset/ground_pelvis/pelvis_ty/accel	/jointset/hip_r/hip_flexion_r/accel	/jointset/hip_r/hip_adduction_r/accel	/jointset/hip_r/hip_rotation_r/accel	/jointset/back/lumbar_extension/accel	/jointset/patellofemoral_r/patellar_flexion_r/accel	/jointset/knee_r/knee_flexion_r/accel	/jointset/knee_r/knee_adduction_r/accel	/jointset/knee_r/knee_rotation_r/accel	/jointset/ankle_r/ankle_angle_r/accel	/jointset/subtalar_r/subtalar_angle_r/accel	gamma_cid13_p0	gamma_cid14_p0	gamma_cid14_p1	gamma_cid14_p2	gamma_cid14_p3	gamma_cid14_p4	gamma_cid14_p5
0.5	-0.2707329246693242	-0.03465707484891598	0.8278021239785649	0.998168616708316	-0.2285287074645134	-0.1316012847541402	-0.345429621021128	0.6925288924362472	0.6925288924362908	0.03854643753085271	0.1745295346011485	0.1306667442740174	0.02255855874489278	-0.7236514336619525	-0.2769932258716232	-0.4515033419378982	2.203112402656241	0.003294544213521619	0.2702066004394667	-0.5814584742300092	1.66467340008196	1.664673400081923	-0.2819342429512791	2.75579029229121e-05	0.2617407775631691	0.06598350436046041	-0.1831017793644041	-0.03268277387278645	0.009547016001944656	-0.3068224291377684	0.1582391341899061	-0.006926564702951129	0.2072433266540229	-31.75705230430464	8.558606068342151	2.793578945944677	-4.900735322797457	-6.155498181423356	-665.2872040435011	63.64709694132859	0.4286019954664446	0.66332703481535	-0.3604730192273904	-1.487313763138396	-0.004005717012435937	-0.5102031662082063	1.852824493255352	-1.182563874689226	-1.182563874689222	0.4207608277984307	0.005496638736820477	-0.2443636792699004	-0.04345806578151367	-1.246631451632736e-07	-1.967813020084658e-07	2.869273124383742e-07	-1.266743204393083e-06	1.019642085986742e-07	-3.018738098185145e-07	1.625904993741015e-07
0.51	-0.2779464563843045	-0.03739357446415165	0.8232701214744595	1.020121616413144	-0.2284970152983737	-0.1289233720109659	-0.3511514900697308	0.709113967017349	0.7091139670173972	0.03575119948038714	0.1745298930340868	0.1332710879173525	0.02321475039637997	-0.7189481358469284	-0.2702850577129449	-0.4547961752854655	2.187192935316252	0.003034795162634516	0.2654037541795923	-0.5628550775984825	1.65211063460038	1.65211063460044	-0.2770556931383605	2.435030879524026e-05	0.2590759785942737	0.06522945301857655	-0.1918861564371231	-0.03152796932524356	0.01017257490793418	-0.3090032102565567	0.15680083248834	-0.006313562023719667	0.2144950529820735	-30.80403861669193	7.849390299683392	2.843933826227759	-4.804026636071398	-5.780367680710985	-670.0867713722927	63.62869977079559	0.5071904758458982	0.6778285276164716	-0.2986006811461512	-1.688479771127912	-0.03846457076062535	-0.4613560852494456	1.873135931917812	-1.327740726097338	-1.327740726082728	0.5300451353746589	-0.006444021115458389	-0.2853351945861248	-0.09528836396678339	-1.040675586460991e-07	-1.229356203745296e-07	4.842117094708299e-07	-7.438905052072156e-07	2.658929947158533e-08	-2.28249376820775e-07	1.807940657143484e-07
0.52	-0.2851097557608697	-0.04006233903355608	0.8187082081991536	1.041906578134233	-0.2284682216370716	-0.1262926938762587	-0.3566855174152551	0.7255664923753978	0.7255664923754461	0.03300647554351592	0.1745295764785645	0.1358472241332215	0.02386261959533335	-0.7136049659788852	-0.2634462167053758	-0.4574854961780237	2.169504805908312	0.002714843246388832	0.2607596787448244	-0.5438901336142953	1.638163555470605	1.638163555470763	-0.2718314202320032	-0.0001074397904482567	0.2560992920699083	0.06431901385369569	-0.200670533509834	-0.03037316477767762	0.01079813381384407	-0.3111839913753429	0.1553625307867807	-0.005700559344458488	0.221746779310127	-29.84413246240679	7.137125427222883	2.897694169241064	-4.712361426251951	-5.4192478209895	-674.9428144192873	63.68427872020164	0.5565764060702818	0.6894616045935303	-0.239770528225557	-1.841046176728444	-0.01604629008415786	-0.4784490011868955	1.925133963787486	-1.459426604328008	-1.459426604328008	0.489905446486138	-0.02021986228635424	-0.3067411903638967	-0.07473563038091649	-6.794230395200884e-08	2.351120034316914e-08	9.132358284565482e-07	2.803228652386548e-07	-1.308409614607083e-07	-8.602880255856786e-08	2.52162193977736e-07
0.53	-0.2922167274631444	-0.0426620844523211	0.8141224359319432	1.063506309121903	-0.2284421489153738	-0.123711005134903	-0.3620280541800001	0.7418728384488014	0.7418728384488307	0.03031224479620177	0.1745292882364435	0.138392400771276	0.02450165349025424	-0.7076937974779427	-0.2564810238889723	-0.459563162066837	2.150151159891281	0.002486333946166744	0.2556177514186622	-0.5245744196343293	1.622877531530191	1.622877531530264	-0.2669473691773097	2.174881353773742e-05	0.2528930718017344	0.06345950007355262	-0.2089580629989177	-0.02976354691963959	0.01140361106490558	-0.3141636602351617	0.1550565188231523	-0.005120391119879936	0.2286109379253576	-28.87838077343903	6.783149252689026	3.000719613112157	-4.629454313369473	-5.33241965264598	-679.8916108322734	63.92217612793062	0.6227286139536273	0.7032818876154145	-0.1758976050519082	-2.02605188727945	-0.02802295594893317	-0.5261305647300647	1.941210070164992	-1.597399647461043	-1.597399647473819	0.4979810633586463	0.02541649509105959	-0.3340416350428331	-0.09552321389246471	-4.114337168051496e-08	1.255819677508188e-07	1.195540147364733e-06	9.89239031769128e-07	-2.393682671608157e-07	1.201934116601002e-08	3.132899379784353e-07
0.54	-0.2992617191720407	-0.04519153118943178	0.8095190604086763	1.084903798034785	-0.2284187152278719	-0.1211795488600818	-0.3671761498139329	0.7580194824110928	0.7580194824110956	0.02766891978511049	0.1745294775350277	0.1409042193686493	0.02513129945496142	-0.7012089673031061	-0.2493864803745078	-0.4610061473893591	2.129056390950683	0.002187036407629583	0.250713185436534	-0.5050019074518094	1.606223133247257	1.606223133247245	-0.2616502729867127	-1.193164847676976e-05	0.2494276839336128	0.06244142781095242	-0.2172455924879944	-0.02915392906157899	0.01200908831587284	-0.3171433290949791	0.1547505068595306	-0.004540222895271724	0.2354750965405906	-27.90760979220577	6.423152069058559	3.104122632421599	-4.548242025981142	-5.237295593789103	-684.9350516019017	64.17143707058307	0.6713087408490527	0.7153317442057125	-0.112834414967308	-2.189270761442143	-0.03020393774718029	-0.4309767323801306	1.976493604298268	-1.733101472832077	-1.733101472832078	0.5725144736668341	-0.05279367548646034	-0.358574710353459	-0.1064473268723409	-2.466292379146827e-08	1.785558251133072e-07	1.315516176825431e-06	1.349315738648519e-06	-2.937901755827593e-07	6.119585961491239e-08	3.630878951353094e-07
0.55	-0.3062391189081328	-0.04764949920203586	0.804904411864668	1.106082033804417	-0.2283982600733601	-0.1186975620893783	-0.3721272952538161	0.7739929756774711	0.7739929756775416	0.02507885769852937	0.174529432660888	0.143380226370212	0.02575046160248975	-0.6941790632753794	-0.2421954558013005	-0.4618178125351302	2.106320623701395	0.00189970477254168	0.2456819576922832	-0.4851992062282283	1.588262698092555	1.588262698092504	-0.2563413485921385	7.743690072754234e-07	0.2457341363434041	0.06137475002818807	-0.2254793191411935	-0.02836648787952118	0.01250689879546214	-0.3197893607630226	0.1539643861952046	-0.003988058042305884	0.2422031733856176	-26.93293003991507	5.912423733165809	3.168234684948661	-4.459924848916077	-4.969565457925967	-689.8436118241376	64.3166699023442	0.7326328992496405	0.7226730706323926	-0.049452628930326	-2.356231844777804	-0.02828502819883657	-0.5394806012469686	1.986354525886283	-1.859434692517932	-1.85943469252376	0.5134857296322211	0.02824989251563044	-0.3807258122704489	-0.1088164055414908	-1.472490620579538e-08	2.047508398497872e-07	1.352037990341399e-06	1.519075311846523e-06	-3.19240977137073e-07	8.706118016969346e-08	3.92759037524469e-07
